<svg width="120" height="40" fill="none" xmlns="http://www.w3.org/2000/svg">
  <path d="M7.706 39.998c-.31 0-.613-.004-.92-.011a12.571 12.571 0 01-1.903-.17 5.874 5.874 0 01-1.686-.574 5.509 5.509 0 01-1.422-1.063 5.56 5.56 0 01-1.038-1.46 6.1 6.1 0 01-.553-1.733 13.328 13.328 0 01-.17-1.96C.009 32.805 0 32.07 0 32.07V7.915s.009-.723.015-.935c.008-.656.064-1.31.168-1.958a6.135 6.135 0 01.553-1.738A5.616 5.616 0 011.77 1.822c.418-.43.9-.791 1.427-1.069A5.816 5.816 0 014.879.184C5.51.078 6.15.021 6.788.013L7.706 0h104.583l.929.013c.634.008 1.266.065 1.891.17a5.927 5.927 0 011.701.573 5.773 5.773 0 012.457 2.53 6.12 6.12 0 01.545 1.725c.106.652.165 1.312.177 1.973.003.297.003.615.003.931.008.392.008.766.008 1.142v21.885c0 .38 0 .75-.008 1.124 0 .34 0 .652-.004.972-.012.65-.07 1.298-.174 1.939a6.126 6.126 0 01-.549 1.746 5.735 5.735 0 01-1.034 1.449 5.531 5.531 0 01-1.424 1.07 5.86 5.86 0 01-1.698.574 12.42 12.42 0 01-1.902.17c-.298.008-.61.012-.913.012l-1.103.002-103.485-.002z" fill="#202123"/>
  <path fill-rule="evenodd" clip-rule="evenodd" d="M73.806 28.201c-1.635 0-2.83-.808-2.969-2.04h-1.902c.12 2.246 1.98 3.667 4.733 3.667 2.944 0 4.794-1.455 4.794-3.778 0-1.817-1.058-2.84-3.606-3.443l-1.368-.335c-1.6-.396-2.255-.913-2.255-1.79 0-1.102 1.024-1.859 2.521-1.859 1.497 0 2.522.748 2.634 1.987h1.876c-.06-2.142-1.86-3.614-4.483-3.614-2.652 0-4.519 1.472-4.519 3.614 0 1.73 1.059 2.797 3.34 3.348l1.608.388c1.61.395 2.29.972 2.29 1.936 0 1.11-1.127 1.92-2.694 1.92zM41.43 26.265h-4.733l-1.137 3.356h-2.005l4.484-12.418h2.083l4.483 12.418h-2.04l-1.135-3.356zm-4.243-1.55h3.752l-1.85-5.446h-.051l-1.851 5.447zm13.322 5c2.273 0 3.779-1.807 3.779-4.62 0-2.806-1.515-4.622-3.813-4.622a3.212 3.212 0 00-2.883 1.6h-.034v-1.506h-1.799v12.05h1.859v-4.485h.043a3.07 3.07 0 002.848 1.584zm1.868-4.62c0-1.833-.947-3.038-2.392-3.038-1.42 0-2.375 1.23-2.375 3.038 0 1.824.955 3.046 2.375 3.046 1.445 0 2.392-1.197 2.392-3.046zm8.097 4.62c2.273 0 3.778-1.807 3.778-4.62 0-2.806-1.514-4.622-3.812-4.622a3.212 3.212 0 00-2.883 1.6h-.034v-1.506h-1.799v12.05h1.858v-4.485h.043a3.07 3.07 0 002.85 1.584zm1.868-4.62c0-1.833-.947-3.038-2.392-3.038-1.42 0-2.375 1.23-2.375 3.038 0 1.824.955 3.046 2.375 3.046 1.445 0 2.392-1.197 2.392-3.046zm20.132-6.67v2.142h1.722v1.472h-1.722v4.991c0 .776.345 1.137 1.102 1.137.204-.004.408-.018.611-.043v1.463c-.34.064-.686.092-1.032.086-1.833 0-2.548-.689-2.548-2.444v-5.19H79.29v-1.472h1.316v-2.142h1.867zm7.013 2.031c-2.616 0-4.294 1.79-4.294 4.639 0 2.856 1.661 4.639 4.294 4.639 2.634 0 4.295-1.783 4.295-4.64 0-2.848-1.67-4.638-4.295-4.638zm2.401 4.639c0-1.954-.895-3.108-2.401-3.108-1.506 0-2.4 1.163-2.4 3.108 0 1.962.894 3.106 2.4 3.106 1.506 0 2.401-1.144 2.401-3.106zm5.198-4.528h-1.772v9.054h1.858v-5.37a1.872 1.872 0 011.937-2.083 2.6 2.6 0 01.835.112v-1.738a2.865 2.865 0 00-.637-.07 2.16 2.16 0 00-2.177 1.636h-.044v-1.54zm11.426 6.395c-.25 1.643-1.85 2.771-3.898 2.771-2.634 0-4.269-1.764-4.269-4.595 0-2.84 1.644-4.682 4.191-4.682 2.505 0 4.08 1.72 4.08 4.466v.637h-6.395v.112a2.36 2.36 0 002.436 2.564 2.049 2.049 0 002.091-1.273h1.764zm-1.756-2.702h-4.526a2.29 2.29 0 012.306-2.298 2.176 2.176 0 012.22 2.298z" fill="#fff"/>
  <path fill-rule="evenodd" clip-rule="evenodd" d="M58.22 7.562h.89v6.26h-.89v-6.26zM39.06 8.674a2.64 2.64 0 00-2.106-.818h-2.155v5.967h2.155c1.777 0 2.808-1.096 2.808-3.002a2.64 2.64 0 00-.702-2.147zm-2.21 4.305h-1.124v-4.28h1.125a1.881 1.881 0 011.967 2.134 1.876 1.876 0 01-1.967 2.146zm3.959-1.41a2.133 2.133 0 114.247 0 2.134 2.134 0 11-4.247 0zm2.125-1.546c.77 0 1.208.57 1.208 1.546 0 .98-.439 1.55-1.208 1.55-.773 0-1.207-.566-1.207-1.55 0-.976.434-1.546 1.207-1.546zm7.767 3.8h-.922l-.93-3.317h-.07l-.927 3.317h-.913L45.696 9.32h.902l.806 3.436h.067l.926-3.436h.852l.926 3.436h.07l.803-3.436h.889L50.7 13.823zm3.136-4.503h-.855v4.503h.888v-2.635a1.033 1.033 0 011.075-1.14c.658 0 .972.36.972 1.083v2.692h.889v-2.915a1.465 1.465 0 00-1.559-1.675 1.348 1.348 0 00-1.344.802h-.066V9.32zm7.508.234a2.134 2.134 0 00-1 2.015 2.134 2.134 0 104.248 0 2.134 2.134 0 00-3.248-2.015zm2.334 2.015c0-.976-.439-1.546-1.208-1.546-.773 0-1.207.57-1.207 1.546 0 .984.434 1.55 1.207 1.55.77 0 1.208-.57 1.208-1.55zm3.525-.364c-1.072.066-1.675.534-1.675 1.344a1.36 1.36 0 001.5 1.348 1.515 1.515 0 001.353-.707h.07v.633h.856v-3.077c0-.951-.637-1.513-1.766-1.513-1.021 0-1.748.496-1.84 1.27h.861c.099-.319.442-.501.939-.501.607 0 .921.268.921.744v.389l-1.22.07zm1.22.96v-.377l-1.1.07c-.62.042-.902.253-.902.65 0 .405.352.64.835.64a1.06 1.06 0 001.166-.983zm3.921-2.92c-1.137 0-1.869.902-1.869 2.324 0 1.427.724 2.328 1.87 2.328a1.563 1.563 0 001.413-.786h.07v.712h.852V7.562h-.889v2.473h-.066a1.484 1.484 0 00-1.38-.79zm-.95 2.324c0 .955.45 1.53 1.202 1.53.75 0 1.212-.583 1.212-1.526 0-.938-.468-1.53-1.212-1.53-.748 0-1.203.58-1.203 1.526zm7.962-2.015a2.133 2.133 0 00-1 2.015 2.134 2.134 0 104.248 0 2.133 2.133 0 00-3.248-2.015zm2.334 2.015c0-.976-.439-1.546-1.208-1.546-.772 0-1.207.57-1.207 1.546 0 .984.434 1.55 1.207 1.55.77 0 1.208-.57 1.208-1.55zm2.962-2.25h-.856v4.504h.89v-2.635a1.033 1.033 0 011.074-1.14c.657 0 .972.36.972 1.083v2.692h.889v-2.915a1.465 1.465 0 00-1.559-1.675 1.348 1.348 0 00-1.344.802h-.066V9.32zm7.99-1.12V9.34h.976v.749h-.976v2.315c0 .472.194.678.637.678.113 0 .226-.007.339-.02v.74c-.16.029-.322.044-.484.046-.988 0-1.382-.348-1.382-1.216v-2.543h-.714V9.34h.714V8.2h.89zm3.07-.637h-.88v6.26h.888v-2.63a1.052 1.052 0 011.134-1.14c.628 0 .963.364.963 1.083v2.688h.89v-2.908a1.483 1.483 0 00-1.551-1.678 1.386 1.386 0 00-1.373.806h-.07V7.563zm8.176 5.045a1.828 1.828 0 01-1.951 1.303 2.047 2.047 0 01-2.08-2.325 2.078 2.078 0 012.076-2.352c1.253 0 2.009.856 2.009 2.27v.31h-3.18v.05a1.192 1.192 0 001.199 1.29 1.08 1.08 0 001.072-.546h.855zm-.851-1.451h-2.275a1.154 1.154 0 011.166-1.167 1.086 1.086 0 011.109 1.167z" fill="#fff"/>
  <path fill-rule="evenodd" clip-rule="evenodd" d="M22.279 7.845a4.872 4.872 0 01-1.115 3.49 4.099 4.099 0 01-3.237 1.531 4.636 4.636 0 011.144-3.361 4.957 4.957 0 013.208-1.66zm3.974 7.429a4.949 4.949 0 00-2.357 4.152 4.782 4.782 0 002.92 4.399 10.965 10.965 0 01-1.52 3.092c-.894 1.338-1.831 2.645-3.32 2.67-.708.016-1.185-.188-1.683-.4-.52-.221-1.06-.452-1.908-.452-.898 0-1.463.238-2.009.468-.47.198-.927.39-1.57.417-1.418.052-2.5-1.428-3.428-2.754-1.852-2.706-3.295-7.627-1.361-10.976a5.315 5.315 0 014.473-2.727c.804-.017 1.575.293 2.252.564.517.208.978.394 1.356.394.333 0 .782-.178 1.304-.386.824-.327 1.832-.727 2.86-.62 1.596.05 3.075.85 3.99 2.159z" fill="#fff"/>
</svg>
