<svg width="144" height="18" xmlns="http://www.w3.org/2000/svg" viewBox="0 0 144.5 18.1"><path d="M20.6 17.6h-3.7V6.2l-4.8 11.5H8.5L3.7 6.2v11.5H0V0h4.7l5.5 13.6L15.8 0h4.7l.1 17.6zM26.1 3.4V7h6.1v3.4h-6.1v3.9h6.6v3.4H22.4V0h10.3v3.4h-6.6zM37.9 3.4V7h12.5v3.4H37.9v3.9h13.3v3.4H34.3V0h16.9v3.4H37.9zM61.7 3.4h-2.8v14.2h-3.7V3.4h-2.8V0h9.3v3.4zM66.8 3.4v4.3h9v3.4h-9v6.5h-3.7V0h13.7v3.4h-10zM91.8 17.6h-4.7l-4.9-5.9v5.9h-3.7V0h6c1.4 0 2.8.5 3.8 1.5.5.5.9 1 1.2 1.7.3.6.4 1.3.4 2s-.1 1.3-.3 1.9c-.2.6-.6 1.2-1.1 1.6-.9.8-2 1.3-3.2 1.3h-.1l6.6 7.6zM82.2 6.9h2.4c.2 0 .5 0 .7-.1.2-.1.4-.2.6-.4.1-.2.3-.4.3-.6.1-.2.1-.4.1-.7 0-.2 0-.5-.1-.7-.1-.2-.2-.4-.4-.6-.2-.2-.4-.3-.6-.4-.2-.1-.4-.1-.7-.1h-2.4v3.6z"/><path d="M97.7 14h-3l-.5 3.6h-3.6l3-17.6h5.1l3.1 17.6h-3.6l-.5-3.6zm-.5-3.4l-1-7.4-1 7.4h2zM123.3 0v17.6h-4.1l-12.5-13v13H103V0h4.4l12.2 12.2V0h3.7zM130.5 11l-.9 1.2v5.5H126V0h3.7v6.2l4.2-6.2h4.3l-5.4 7.7 5.6 10h-4.1l-3.8-6.7z"/><path d="M142 18.1c1.4 0 2.5-1.1 2.5-2.5s-1.1-2.5-2.5-2.5-2.5 1.1-2.5 2.5 1.1 2.5 2.5 2.5z" fill="#3a65ff"/></svg>
