<svg width="56" height="56" viewBox="0 0 56 56" fill="none" xmlns="http://www.w3.org/2000/svg">
<path fill-rule="evenodd" clip-rule="evenodd" d="M28 56C43.464 56 56 43.464 56 28C56 12.536 43.464 0 28 0C12.536 0 0 12.536 0 28C0 43.464 12.536 56 28 56Z" fill="black"/>
<path fill-rule="evenodd" clip-rule="evenodd" d="M27.643 25.5164C23.4006 21.5327 17.7406 29.4779 15.3003 28.4849C12.9788 27.5405 14.7551 22.9303 16.8853 24.4638C16.6973 23.3172 11.9184 22.6103 11.3583 26.7595C11.074 28.866 11.7935 30.6802 13.4989 31.974C15.9541 33.8366 20.64 34.2977 27.1876 30.7746C27.3777 30.6725 27.5642 30.5064 27.7539 30.3563C27.9438 30.5064 28.1303 30.6725 28.3204 30.7746C34.8681 34.2977 39.554 33.8366 42.0093 31.974C43.7145 30.6802 44.434 28.866 44.1497 26.7595C43.5896 22.6103 38.8107 23.3172 38.6227 24.4638C40.7529 22.9303 42.5292 27.5405 40.2078 28.4849C37.7676 29.4779 32.1074 21.5327 27.865 25.5164C27.8279 25.4816 27.791 25.4481 27.7539 25.4154C27.717 25.4481 27.6801 25.4816 27.643 25.5164Z" fill="white"/>
</svg>
