<svg width="136" height="40" fill="none" xmlns="http://www.w3.org/2000/svg">
  <rect width="136" height="40" rx="7" fill="#202123"/>
  <path fill-rule="evenodd" clip-rule="evenodd" d="M47.867 23.185v1.8h4.32a3.77 3.77 0 01-1 2.27 4.42 4.42 0 01-3.33 1.32 4.8 4.8 0 110-9.6 4.6 4.6 0 013.27 1.29l1.27-1.27a6.29 6.29 0 00-4.53-1.87 6.61 6.61 0 100 13.21 6 6 0 004.61-1.85 6 6 0 001.56-4.22 5.875 5.875 0 00-.1-1.13l-6.07.05zm11.09-1.31a4.25 4.25 0 104.26 4.25 4.19 4.19 0 00-4.27-4.25h.01zm5.08 4.263a4.25 4.25 0 014.23-4.263 4.19 4.19 0 014.27 4.25 4.25 4.25 0 01-8.5.013zm1.722 1.106a2.58 2.58 0 002.508 1.461 2.46 2.46 0 002.4-2.58 2.58 2.58 0 10-4.908 1.119zm-9.317.007a2.58 2.58 0 002.515 1.454h-.01a2.46 2.46 0 002.4-2.58 2.58 2.58 0 10-4.905 1.126zm33.095-5.376a4 4 0 013.64 2.71l.21.45-5.69 2.35a2.16 2.16 0 002.06 1.29 2.43 2.43 0 002.09-1.18l1.45 1a4.23 4.23 0 01-3.54 1.88 4.16 4.16 0 01-4.22-4.25 4 4 0 014-4.25zm-2.16 4.13a2.33 2.33 0 012.22-2.48 1.65 1.65 0 011.58.9l-3.8 1.58zm-2.75 4.12h-1.87v-12.5h1.87v12.5zm-4.93-7.3h-.07a3 3 0 00-2.24-1 4.26 4.26 0 000 8.51 2.9 2.9 0 002.24-1h.06v.61c0 1.63-.87 2.5-2.27 2.5a2.35 2.35 0 01-2.14-1.51l-1.63.68a4.05 4.05 0 003.77 2.51c2.19 0 4-1.29 4-4.43v-7.57h-1.72v.7zm-2.143 5.88h.003-.01.007zm1.685-.802a2.38 2.38 0 01-1.685.802 2.59 2.59 0 01.003-5.16 2.4 2.4 0 012.27 2.58 2.38 2.38 0 01-.588 1.778zm22.698-10.278h-4.47v12.5h1.87v-4.74h2.61a3.89 3.89 0 100-7.76h-.01zm-2.61 6h2.61l.04.03a2.145 2.145 0 100-4.29h-2.65v4.26zm14.14-1.8a3.5 3.5 0 00-3.33 1.91l1.66.69a1.77 1.77 0 011.7-.92 1.8 1.8 0 012 1.61v.13a4.13 4.13 0 00-1.95-.48c-1.79 0-3.6 1-3.6 2.81a2.89 2.89 0 003.1 2.75 2.63 2.63 0 002.4-1.2h.06v1h1.8v-4.81c0-2.19-1.66-3.46-3.79-3.46l-.05-.03zm-1.69 5.79c0 .75.85 1.06 1.46 1.06l.05.03a2.26 2.26 0 002.19-2 3.321 3.321 0 00-1.7-.42c-.94 0-2 .33-2 1.33zm12.09-5.49l-2.14 5.42h-.06l-2.22-5.42h-2l3.33 7.58-1.9 4.21h1.95l5.12-11.79h-2.08zm-14.94 8h-1.87v-12.5h1.87v12.5z" fill="#fff"/>
  <path fill-rule="evenodd" clip-rule="evenodd" d="M69.337 7.895a3.24 3.24 0 000 4.45 3.12 3.12 0 004.4 0 3.23 3.23 0 000-4.45 3.1 3.1 0 00-4.4 0zm-22.54 4.47a2.71 2.71 0 00.75-2c0-.15-.013-.302-.04-.45h-2.91v.72h2.17a1.89 1.89 0 01-.5 1.22 2.36 2.36 0 01-4-1.73 2.32 2.32 0 012.33-2.4 2 2 0 011.64.71l.53-.53a2.47 2.47 0 00-.94-.67 3.1 3.1 0 00-1.23-.25 3 3 0 00-2.21.9 3.15 3.15 0 002.21 5.37 2.91 2.91 0 002.2-.89zm2.63-4.5h2.7v-.74h-3.5v6h3.5v-.74h-2.7v-1.9h2.46v-.72h-2.46v-1.9zm5.98 5.26h-.77v-5.26h-1.68v-.74h4.17v.74h-1.72v5.26zm5.43-6h-.77v6h.77v-6zm3.42 6h-.77v-5.26h-1.68v-.74h4.12v.74h-1.67v5.26zm12.39-6h-.94v6h.78v-4.89l3.05 4.89h.8v-6h-.77v4.67l-2.92-4.67zm-6.74 4.72a2.31 2.31 0 003.26 0 2.56 2.56 0 000-3.44 2.31 2.31 0 00-3.26 0 2.56 2.56 0 000 3.44z" fill="#fff"/>
  <path d="M69.337 12.345l-.073.069.003.002.07-.071zm0-4.45l-.07-.07-.003.001.073.069zm4.4 4.45l.07.07.003-.001-.073-.069zm0-4.45l.073-.069-.002-.001-.07.07zm-26.19 2.47h-.1v.005l.1-.005zm-.75 2l.072.07-.072-.07zm.71-2.45l.099-.018-.015-.082h-.084v.1zm-2.91 0v-.1h-.1v.1h.1zm0 .72h-.1v.1h.1v-.1zm2.17 0l.1.003.003-.103h-.103v.1zm-.5 1.22l.07.072.004-.004-.074-.068zm-2.577.47l-.04.091.04-.092zm-1.423-2.2l.1.001v-.005l-.1.004zm.654-1.696l-.072-.07.072.07zm1.676-.704v.1h.006l-.006-.1zm1.64.71l-.076.064.07.084.077-.077-.07-.071zm.53-.53l.07.07.067-.065-.061-.07-.076.065zm-.94-.67l-.04.092h.003l.037-.092zm-1.23-.25l-.002.1h.002v-.1zm-2.21.9l.071.07-.07-.07zm-.678 3.419l-.093.038.093-.038zm2.888 1.951l.004-.1h-.003v.1zm7.53-5.39v.1h.1v-.1h-.1zm-2.7 0v-.1h-.1v.1h.1zm2.7-.74h.1v-.1h-.1v.1zm-3.5 0v-.1h-.1v.1h.1zm0 6h-.1v.1h.1v-.1zm3.5 0v.1h.1v-.1h-.1zm0-.74h.1v-.1h-.1v.1zm-2.7 0h-.1v.1h.1v-.1zm0-1.9v-.1h-.1v.1h.1zm2.46 0v.1h.1v-.1h-.1zm0-.72h.1v-.1h-.1v.1zm-2.46 0h-.1v.1h.1v-.1zm5.21 3.36h-.1v.1h.1v-.1zm.77 0v.1h.1v-.1h-.1zm-.77-5.26h.1v-.1h-.1v.1zm-1.68 0h-.1v.1h.1v-.1zm0-.74v-.1h-.1v.1h.1zm4.17 0h.1v-.1h-.1v.1zm0 .74v.1h.1v-.1h-.1zm-1.72 0v-.1h-.1v.1h.1zm4.66-.74v-.1h-.1v.1h.1zm.77 0h.1v-.1h-.1v.1zm-.77 6h-.1v.1h.1v-.1zm.77 0v.1h.1v-.1h-.1zm2.65 0h-.1v.1h.1v-.1zm.77 0v.1h.1v-.1h-.1zm-.77-5.26h.1v-.1h-.1v.1zm-1.68 0h-.1v.1h.1v-.1zm0-.74v-.1h-.1v.1h.1zm4.12 0h.1v-.1h-.1v.1zm0 .74v.1h.1v-.1h-.1zm-1.67 0v-.1h-.1v.1h.1zm11.45-.74v-.1h-.1v.1h.1zm.94 0l.085-.053-.03-.047h-.055v.1zm-.94 6h-.1v.1h.1v-.1zm.78 0v.1h.1v-.1h-.1zm0-4.89l.085-.053-.185-.296v.349h.1zm3.05 4.89l-.085.053.03.047h.055v-.1zm.8 0v.1h.1v-.1h-.1zm0-6h.1v-.1h-.1v.1zm-.77 0v-.1h-.1v.1h.1zm0 4.67l-.085.053.185.295v-.348h-.1zm-6.4.05l.07.07.004-.003-.074-.067zm-3.26 0l-.074.067.004.004.07-.071zm3.26-3.44l.074-.067-.003-.004-.07.071zm-3.26 0l-.07-.071-.004.004.074.067zm-.497 3.871a3.14 3.14 0 010-4.312l-.146-.138a3.34 3.34 0 000 4.588l.146-.138zm4.257-.002a3.02 3.02 0 01-4.26 0l-.14.142a3.22 3.22 0 004.54 0l-.14-.142zm-.002-4.31a3.13 3.13 0 010 4.312l.145.138a3.33 3.33 0 000-4.588l-.145.138zm-2.128-.885a3 3 0 012.13.886l.141-.14a3.2 3.2 0 00-2.27-.946v.2zm-2.129.886a3 3 0 012.13-.886v-.2a3.2 3.2 0 00-2.272.946l.142.14zm-21.96 2.405a2.61 2.61 0 01-.723 1.926l.144.138a2.81 2.81 0 00.778-2.074l-.2.01zm-.04-.437c.026.142.04.287.04.432h.2a2.63 2.63 0 00-.043-.468l-.196.036zm-2.81.082h2.91v-.2h-2.91v.2zm.1.62v-.72h-.2v.72h.2zm2.07-.1h-2.17v.2h2.17v-.2zm-.427 1.388a1.99 1.99 0 00.526-1.285l-.2-.006a1.79 1.79 0 01-.473 1.155l.147.136zm-2.69.493a2.46 2.46 0 002.686-.49l-.14-.143a2.26 2.26 0 01-2.467.45l-.08.183zm-1.484-2.292a2.46 2.46 0 001.483 2.292l.08-.184a2.26 2.26 0 01-1.363-2.106l-.2-.002zm.682-1.765a2.42 2.42 0 00-.682 1.77l.2-.008a2.22 2.22 0 01.626-1.622l-.144-.14zm1.749-.734a2.42 2.42 0 00-1.749.734l.144.14c.42-.434 1-.677 1.604-.674v-.2zm1.716.746a2.1 2.1 0 00-1.722-.746l.01.2a1.9 1.9 0 011.559.674l.153-.128zm.382-.537l-.53.53.142.142.53-.53-.142-.142zm-.906-.506c.347.14.656.36.902.643l.15-.132a2.57 2.57 0 00-.977-.697l-.075.186zm-1.193-.243a3 3 0 011.19.242l.08-.184a3.2 3.2 0 00-1.27-.258v.2zm-2.138.87a2.9 2.9 0 012.136-.87l.004-.2a3.1 3.1 0 00-2.283.93l.143.14zm-.658 3.31a3.05 3.05 0 01.657-3.31l-.142-.14a3.25 3.25 0 00-.7 3.527l.185-.076zm2.797 1.89a3.05 3.05 0 01-2.797-1.89l-.185.077a3.25 3.25 0 002.98 2.013l.002-.2zm2.127-.86a2.81 2.81 0 01-2.124.86l-.007.2a3.01 3.01 0 002.275-.92l-.144-.14zm5.402-4.53h-2.7v.2h2.7v-.2zm-.1-.64v.74h.2v-.74h-.2zm-3.4.1h3.5v-.2h-3.5v.2zm.1 5.9v-6h-.2v6h.2zm3.4-.1h-3.5v.2h3.5v-.2zm-.1-.64v.74h.2v-.74h-.2zm-2.6.1h2.7v-.2h-2.7v.2zm-.1-2v1.9h.2v-1.9h-.2zm2.56-.1h-2.46v.2h2.46v-.2zm-.1-.62v.72h.2v-.72h-.2zm-2.36.1h2.46v-.2h-2.46v.2zm-.1-2v1.9h.2v-1.9h-.2zm5.31 5.36h.77v-.2h-.77v.2zm-.1-5.36v5.26h.2v-5.26h-.2zm-1.58.1h1.68v-.2h-1.68v.2zm-.1-.84v.74h.2v-.74h-.2zm4.27-.1h-4.17v.2h4.17v-.2zm.1.84v-.74h-.2v.74h.2zm-1.82.1h1.72v-.2h-1.72v.2zm.1 5.16v-5.26h-.2v5.26h.2zm4.56-5.9h.77v-.2h-.77v.2zm.1 5.9v-6h-.2v6h.2zm.67-.1h-.77v.2h.77v-.2zm-.1-5.9v6h.2v-6h-.2zm2.75 6.1h.77v-.2h-.77v.2zm-.1-5.36v5.26h.2v-5.26h-.2zm-1.58.1h1.68v-.2h-1.68v.2zm-.1-.84v.74h.2v-.74h-.2zm4.22-.1h-4.12v.2h4.12v-.2zm.1.84v-.74h-.2v.74h.2zm-1.77.1h1.67v-.2h-1.67v.2zm.1 5.16v-5.26h-.2v5.26h.2zm11.35-5.9h.94v-.2h-.94v.2zm.1 5.9v-6h-.2v6h.2zm.68-.1h-.78v.2h.78v-.2zm-.1-4.79v4.89h.2v-4.89h-.2zm3.235 4.837l-3.05-4.89-.17.106 3.05 4.89.17-.106zm.715-.047h-.8v.2h.8v-.2zm-.1-5.9v6h.2v-6h-.2zm-.67.1h.77v-.2h-.77v.2zm.1 4.57v-4.67h-.2v4.67h.2zm-3.105-4.617l2.92 4.67.17-.106-2.92-4.67-.17.106zm-3.465 4.596a2.21 2.21 0 01-3.12 0l-.14.142a2.41 2.41 0 003.4 0l-.14-.142zm-.004-3.302a2.46 2.46 0 010 3.306l.148.134a2.66 2.66 0 000-3.574l-.148.134zm-3.115.004a2.21 2.21 0 013.119 0l.14-.142a2.41 2.41 0 00-3.4 0l.14.142zm.003 3.302a2.46 2.46 0 010-3.306l-.148-.134a2.66 2.66 0 000 3.574l.148-.134z" fill="#fff"/>
  <path d="M10.567 7.665a2 2 0 00-.46 1.4v22.12a2 2 0 00.46 1.4l.07.07 12.39-12.38v-.29l-12.39-12.39-.07.07z" fill="url(#paint0_linear)"/>
  <path d="M27.127 24.405l-4.1-4.13v-.29l4.1-4.14.09.05 4.91 2.79c1.4.79 1.4 2.09 0 2.89l-4.89 2.78-.11.05z" fill="url(#paint1_linear)"/>
  <path d="M27.247 24.345l-4.22-4.22-12.46 12.46a1.63 1.63 0 002.08.06l14.61-8.3" fill="url(#paint2_linear)"/>
  <path d="M27.247 15.905l-14.61-8.3a1.63 1.63 0 00-2.08.06l12.47 12.46 4.22-4.22z" fill="url(#paint3_linear)"/>
  <path opacity=".2" d="M27.127 24.255l-14.49 8.25a1.67 1.67 0 01-2 0l-.07.07.07.07a1.66 1.66 0 002 0l14.61-8.3-.12-.09z" fill="#000"/>
  <path opacity=".12" fill-rule="evenodd" clip-rule="evenodd" d="M27.127 24.255l5-2.83a1.86 1.86 0 001-1.3 1.75 1.75 0 01-1 1.44l-4.91 2.78-.09-.09zM10.105 31.24a2 2 0 00.462 1.205l.07.08-.07.07a2 2 0 01-.462-1.355zm0 0l.002-.045v-.15c-.004.065-.005.13-.002.195z" fill="#000"/>
  <path opacity=".25" d="M12.637 7.745l19.49 11.08a1.86 1.86 0 011 1.3 1.75 1.75 0 00-1-1.44l-19.49-11.08c-1.4-.79-2.54-.13-2.54 1.47v.15c.03-1.61 1.15-2.27 2.54-1.48z" fill="#fff"/>
  <defs>
    <linearGradient id="paint0_linear" x1="17.6" y1="-7.434" x2="-2.239" y2="-2.157" gradientUnits="userSpaceOnUse">
      <stop stop-color="#00A0FF"/>
      <stop offset=".01" stop-color="#00A1FF"/>
      <stop offset=".26" stop-color="#00BEFF"/>
      <stop offset=".51" stop-color="#00D2FF"/>
      <stop offset=".76" stop-color="#00DFFF"/>
      <stop offset="1" stop-color="#00E3FF"/>
    </linearGradient>
    <linearGradient id="paint1_linear" x1="33.957" y1="9.925" x2="9.767" y2="9.925" gradientUnits="userSpaceOnUse">
      <stop stop-color="#FFE000"/>
      <stop offset=".41" stop-color="#FFBD00"/>
      <stop offset=".78" stop-color="orange"/>
      <stop offset="1" stop-color="#FF9C00"/>
    </linearGradient>
    <linearGradient id="paint2_linear" x1="10.201" y1="13.652" x2="-5.735" y2="40.459" gradientUnits="userSpaceOnUse">
      <stop stop-color="#FF3A44"/>
      <stop offset="1" stop-color="#C31162"/>
    </linearGradient>
    <linearGradient id="paint3_linear" x1=".837" y1="4.221" x2="7.95" y2="16.192" gradientUnits="userSpaceOnUse">
      <stop stop-color="#32A071"/>
      <stop offset=".07" stop-color="#2DA771"/>
      <stop offset=".48" stop-color="#15CF74"/>
      <stop offset=".8" stop-color="#06E775"/>
      <stop offset="1" stop-color="#00F076"/>
    </linearGradient>
  </defs>
</svg>
